<svg width="147" height="135" viewBox="0 0 147 135" fill="none" xmlns="http://www.w3.org/2000/svg">
<rect x="8" width="120" height="120" rx="60" fill="#F1F5F9"/>
<circle cx="3" cy="27" r="2" fill="#FFD9A9"/>
<circle cx="132" cy="21" r="2" fill="#2DD4BF"/>
<circle cx="143.5" cy="30.5" r="3.5" fill="#E2E8F0"/>
<circle cx="2" cy="119" r="2" fill="#FF8092"/>
<g filter="url(#filter0_d_2420_11775)">
<path d="M110.621 12.8536C110.621 11.0367 109.898 9.29394 108.613 8.0085C107.327 6.72306 105.584 6 103.765 6H103.11C97.472 6.28016 94.9506 6.84254 93.455 8.78924L89.9922 12.8536V22.4759L95.1278 38.1669H110.607C110.611 38.1669 110.611 38.1669 110.613 38.1669C110.615 38.1669 110.615 38.1648 110.617 38.1628C110.619 38.1628 110.619 38.1607 110.619 38.1587C110.621 38.1587 110.621 38.1545 110.621 38.1545V12.8536Z" fill="#CBD5E1"/>
<path d="M96.9119 6H42.8575C41.9182 6 40.9891 6.1854 40.1219 6.54384C39.2546 6.90434 38.4656 7.42964 37.8023 8.09296C37.139 8.75834 36.6116 9.54526 36.2511 10.4125C35.8927 11.2818 35.7073 12.2109 35.7073 13.1482V92.9155L43.5641 104.204C61.1297 106.093 84.999 108.854 90.0583 109C90.9585 109 91.8484 108.823 92.6828 108.479C93.5129 108.135 94.2689 107.628 94.9055 106.994C95.542 106.357 96.0467 105.601 96.3908 104.769C96.7368 103.937 96.9119 103.045 96.9119 102.146V12.8536C96.9119 11.9534 97.0891 11.0614 97.4331 10.2312C97.7771 9.399 98.2839 8.64298 98.9204 8.00644C99.5549 7.37196 100.313 6.8652 101.143 6.52118C101.975 6.17716 102.867 6 103.766 6H103.11H96.9119Z" fill="white"/>
<path d="M44.2007 26.6378H56.0004C56.5113 26.6378 57.0016 26.4359 57.3641 26.0733C57.7267 25.7108 57.9306 25.2205 57.9306 24.7076C57.9306 24.1946 57.7267 23.7043 57.3641 23.3418C57.0016 22.9813 56.5113 22.7773 56.0004 22.7773H44.2007C43.6899 22.7773 43.1975 22.9813 42.837 23.3418C42.4744 23.7043 42.2705 24.1946 42.2705 24.7076C42.2705 25.2205 42.4744 25.7108 42.837 26.0733C43.1975 26.4359 43.6899 26.6378 44.2007 26.6378Z" fill="#CBD5E1"/>
<path d="M83.9961 22.7773H64.354C63.8432 22.7773 63.3508 22.9813 62.9903 23.3418C62.6278 23.7043 62.4238 24.1946 62.4238 24.7076C62.4238 25.2205 62.6278 25.7108 62.9903 26.0733C63.3508 26.4359 63.8432 26.6378 64.354 26.6378H83.9961C84.507 26.6378 84.9994 26.4359 85.3599 26.0733C85.7224 25.7108 85.9264 25.2205 85.9264 24.7076C85.9264 24.1946 85.7224 23.7043 85.3599 23.3418C84.9994 22.9813 84.507 22.7773 83.9961 22.7773Z" fill="#E2E8F0"/>
<path d="M47.8672 31.5622C47.8672 31.8135 47.9166 32.0648 48.0134 32.2996C48.1103 32.5345 48.2545 32.7467 48.4316 32.9259C48.6129 33.1051 48.8251 33.2472 49.0599 33.3441C49.2948 33.4409 49.544 33.4903 49.7974 33.4903H69.4395C69.6929 33.4903 69.9442 33.4409 70.179 33.342C70.4118 33.2452 70.6261 33.1051 70.8053 32.9238C70.9845 32.7467 71.1266 32.5324 71.2235 32.2976C71.3203 32.0648 71.3697 31.8135 71.3697 31.5601C71.3697 31.3067 71.3203 31.0554 71.2235 30.8226C71.1266 30.5878 70.9845 30.3735 70.8053 30.1943C70.6261 30.0151 70.4118 29.873 70.179 29.7761C69.9442 29.6793 69.6929 29.6299 69.4395 29.6299H49.7974C49.544 29.6299 49.2927 29.6793 49.0599 29.7761C48.8251 29.873 48.6129 30.0151 48.4316 30.1943C48.2545 30.3735 48.1103 30.5878 48.0134 30.8226C47.9166 31.0554 47.8672 31.3067 47.8672 31.5622Z" fill="#E2E8F0"/>
<path d="M83.9958 36.3535H44.2007C43.6899 36.3535 43.1975 36.5575 42.837 36.92C42.4744 37.2826 42.2705 37.7729 42.2705 38.2858C42.2705 38.7967 42.4744 39.287 42.837 39.6495C43.1975 40.0121 43.6899 40.214 44.2007 40.214H83.9958C84.5067 40.214 84.999 40.0121 85.3595 39.6495C85.7221 39.287 85.926 38.7967 85.926 38.2858C85.926 37.7729 85.7221 37.2826 85.3595 36.92C84.999 36.5575 84.5067 36.3535 83.9958 36.3535Z" fill="#CBD5E1"/>
<path d="M83.9957 42.9415H44.2006C43.9452 42.9394 43.6918 42.9888 43.4569 43.0857C43.22 43.1804 43.0058 43.3226 42.8245 43.5018C42.6432 43.681 42.5011 43.8952 42.4022 44.1301C42.3033 44.3649 42.2539 44.6162 42.2539 44.8737C42.2539 45.1271 42.3033 45.3805 42.4022 45.6153C42.5011 45.8502 42.6432 46.0644 42.8245 46.2436C43.0058 46.4229 43.22 46.565 43.4569 46.6598C43.6918 46.7566 43.9452 46.806 44.2006 46.8019H83.9957C84.2491 46.806 84.5024 46.7566 84.7393 46.6598C84.9742 46.565 85.1884 46.4229 85.3697 46.2436C85.551 46.0644 85.6952 45.8502 85.792 45.6153C85.8909 45.3805 85.9424 45.1271 85.9424 44.8737C85.9424 44.6162 85.8909 44.3649 85.792 44.1301C85.6952 43.8952 85.551 43.681 85.3697 43.5018C85.1884 43.3226 84.9742 43.1804 84.7393 43.0857C84.5024 42.9888 84.2491 42.9394 83.9957 42.9415Z" fill="#CBD5E1"/>
<path d="M83.9959 49.5294H56.1489C55.8934 49.5273 55.6421 49.5767 55.4052 49.6736C55.1683 49.7683 54.954 49.9105 54.7728 50.0897C54.5935 50.2689 54.4493 50.4831 54.3505 50.718C54.2536 50.9528 54.2021 51.2062 54.2021 51.4616C54.2021 51.715 54.2536 51.9684 54.3505 52.2032C54.4493 52.4381 54.5935 52.6523 54.7728 52.8315C54.954 53.0108 55.1683 53.1529 55.4052 53.2477C55.6421 53.3445 55.8934 53.3939 56.1489 53.3898H83.9959C84.2493 53.3939 84.5027 53.3445 84.7396 53.2477C84.9744 53.1529 85.1887 53.0108 85.3699 52.8315C85.5512 52.6523 85.6954 52.4381 85.7922 52.2032C85.8911 51.9684 85.9426 51.715 85.9426 51.4616C85.9426 51.2062 85.8911 50.9528 85.7922 50.718C85.6954 50.4831 85.5512 50.2689 85.3699 50.0897C85.1887 49.9105 84.9744 49.7683 84.7396 49.6736C84.5027 49.5767 84.2493 49.5273 83.9959 49.5294Z" fill="#CBD5E1"/>
<path d="M44.2007 59.9806H64.2363C64.7492 59.9806 65.2395 59.7766 65.6021 59.4141C65.9626 59.0515 66.1665 58.5612 66.1665 58.0503C66.1665 57.5374 65.9626 57.0471 65.6021 56.6846C65.2395 56.3241 64.7492 56.1201 64.2363 56.1201H44.2007C43.6899 56.1201 43.1975 56.3241 42.837 56.6846C42.4744 57.0471 42.2705 57.5374 42.2705 58.0503C42.2705 58.5612 42.4744 59.0515 42.837 59.4141C43.1975 59.7766 43.6899 59.9806 44.2007 59.9806Z" fill="#CBD5E1"/>
<path d="M83.9958 62.707H44.2007C43.9474 62.707 43.696 62.7565 43.4632 62.8533C43.2284 62.9501 43.0142 63.0922 42.837 63.2715C42.6557 63.4507 42.5136 63.6629 42.4168 63.8977C42.32 64.1326 42.2705 64.3818 42.2705 64.6372C42.2705 64.8906 42.32 65.1399 42.4168 65.3747C42.5136 65.6096 42.6557 65.8218 42.837 66.001C43.0142 66.1802 43.2284 66.3223 43.4632 66.4191C43.696 66.518 43.9474 66.5675 44.2007 66.5675H83.9958C84.2492 66.5675 84.5005 66.518 84.7333 66.4191C84.9681 66.3223 85.1824 66.1802 85.3595 66.001C85.5408 65.8218 85.6829 65.6096 85.7777 65.3747C85.8766 65.1399 85.926 64.8906 85.926 64.6372C85.926 64.3818 85.8766 64.1326 85.7777 63.8977C85.6829 63.6629 85.5408 63.4507 85.3595 63.2715C85.1824 63.0922 84.9681 62.9501 84.7333 62.8533C84.5005 62.7565 84.2492 62.707 83.9958 62.707Z" fill="#CBD5E1"/>
<path d="M64.2363 70.8223H44.2007C43.6899 70.8223 43.1975 71.0262 42.837 71.3888C42.4744 71.7493 42.2705 72.2416 42.2705 72.7525C42.2705 73.2654 42.4744 73.7578 42.837 74.1183C43.1975 74.4808 43.6899 74.6848 44.2007 74.6848H64.2363C64.7492 74.6848 65.2395 74.4808 65.6021 74.1183C65.9626 73.7578 66.1665 73.2654 66.1665 72.7525C66.1665 72.2416 65.9626 71.7493 65.6021 71.3888C65.2395 71.0262 64.7492 70.8223 64.2363 70.8223Z" fill="#CBD5E1"/>
<path d="M22.0144 92.915C22.0124 92.915 22.0103 92.915 22.0082 92.915C22.0062 92.9171 22.0062 92.9171 22.0041 92.9192C22.0021 92.9192 22.0021 92.9212 22.0021 92.9233C22 92.9253 22 92.9274 22 92.9274V102.146C22 103.044 22.1772 103.936 22.5212 104.768C22.8673 105.601 23.372 106.357 24.0064 106.991C24.645 107.628 25.399 108.134 26.2312 108.478C27.0635 108.822 27.9534 109 28.8557 109H90.0583C89.1581 109 88.2681 108.822 87.4338 108.476C86.6037 108.134 85.8476 107.628 85.2111 106.991C84.5746 106.357 84.0699 105.601 83.7258 104.768C83.3818 103.936 83.2047 103.044 83.2047 102.146V92.9274C83.2047 92.9274 83.2047 92.9253 83.2047 92.9233C83.2026 92.9212 83.2026 92.9192 83.2005 92.9192C83.2005 92.9171 83.1985 92.9171 83.1964 92.915C83.1944 92.915 83.1923 92.915 83.1923 92.915H22.0144Z" fill="#CBD5E1"/>
</g>
<circle cx="110" cy="85" r="20" fill="#FF9F29" stroke="white" stroke-width="3"/>
<path fill-rule="evenodd" clip-rule="evenodd" d="M101.667 83.8919C101.667 79.9017 104.867 76.667 108.815 76.667C110.711 76.667 112.529 77.4282 113.869 78.7831C115.21 80.1381 115.963 81.9758 115.963 83.8919C115.963 87.8822 112.763 91.1169 108.815 91.1169C104.867 91.1169 101.667 87.8822 101.667 83.8919ZM115.845 89.7122L117.973 91.4307H118.01C118.441 91.866 118.441 92.5718 118.01 93.0072C117.58 93.4425 116.881 93.4425 116.451 93.0072L114.684 90.9824C114.517 90.8142 114.423 90.5856 114.423 90.3473C114.423 90.109 114.517 89.8805 114.684 89.7122C115.006 89.3923 115.522 89.3923 115.845 89.7122Z" fill="white"/>
<defs>
<filter id="filter0_d_2420_11775" x="14" y="0" width="120.621" height="135" filterUnits="userSpaceOnUse" color-interpolation-filters="sRGB">
<feFlood flood-opacity="0" result="BackgroundImageFix"/>
<feColorMatrix in="SourceAlpha" type="matrix" values="0 0 0 0 0 0 0 0 0 0 0 0 0 0 0 0 0 0 127 0" result="hardAlpha"/>
<feOffset dx="8" dy="10"/>
<feGaussianBlur stdDeviation="8"/>
<feComposite in2="hardAlpha" operator="out"/>
<feColorMatrix type="matrix" values="0 0 0 0 0.0588235 0 0 0 0 0.0901962 0 0 0 0 0.164706 0 0 0 0.08 0"/>
<feBlend mode="normal" in2="BackgroundImageFix" result="effect1_dropShadow_2420_11775"/>
<feBlend mode="normal" in="SourceGraphic" in2="effect1_dropShadow_2420_11775" result="shape"/>
</filter>
</defs>
</svg>
